<?xml version="1.0" encoding="iso-8859-1"?>
<!-- Generator: Adobe Illustrator 19.0.0, SVG Export Plug-In . SVG Version: 6.00 Build 0)  -->
<svg version="1.1" id="Layer_1" xmlns="http://www.w3.org/2000/svg" xmlns:xlink="http://www.w3.org/1999/xlink" x="0px" y="0px"
	 viewBox="0 0 512.001 512.001" style="enable-background:new 0 0 512.001 512.001;" xml:space="preserve">
<path style="fill:#E1B658;" d="M158.17,427.865c-10.863-9.182-20.856-13.601-25.62-15.36c-14.933,17.486-19.104,47.197,2.303,70.727
	c13.337,14.659,29.56,20.512,48.22,17.39c5.452-0.912,10.303-2.47,14.229-4.048C188.93,460.161,171.539,439.163,158.17,427.865z"/>
<path style="fill:#FF5240;" d="M328.075,339.91c10.318-14.068,23.01-21.643,28.946-24.646v-25.411l-29.286-18.392l-31.762,19.947
	c-1.721,1.081-3.91,1.081-5.631,0l-31.757-19.947l-31.757,19.947c-1.721,1.081-3.91,1.081-5.631,0l-26.464-16.623v71.74
	c0,1.382-0.541,2.71-1.507,3.7l-52.798,54.042c6.017,2.631,14.733,7.289,24.085,15.099c14.485,12.1,33.203,34.329,42.516,72.389
	c0.329-0.204,0.512-0.323,0.523-0.333c0.212-0.142,0.434-0.269,0.665-0.38c0.745-0.356,72.835-34.949,112.363-60.516
	C304.893,385.67,315.86,356.566,328.075,339.91z"/>
<path style="fill:#E1B658;" d="M357.022,346.525v-19.196c-15.203,9.253-47.146,36.714-27.457,96.742
	c30.52-26.001,27.505-76.652,27.468-77.19C357.026,346.764,357.022,346.645,357.022,346.525z"/>
<path style="fill:#129A58;" d="M194.734,262.284l29.279,18.391l31.757-19.948c1.721-1.081,3.91-1.081,5.631,0l31.757,19.948
	l31.762-19.948c1.721-1.081,3.908-1.081,5.631,0l26.471,16.624v-20.288l-29.192-18.319l-31.787,19.95
	c-1.721,1.08-3.908,1.08-5.629,0l-31.784-19.95l-31.78,19.95c-1.721,1.08-3.908,1.08-5.629,0l-26.488-16.626L194.734,262.284
	L194.734,262.284z"/>
<path style="fill:#FFFFFF;" d="M366.254,94.254H185.501c-14.188,0-25.73,11.542-25.73,25.73v60.859
	c0,14.188,11.542,25.73,25.73,25.73h180.753c14.188,0,25.73-11.542,25.73-25.73v-60.86
	C391.984,105.796,380.44,94.254,366.254,94.254z"/>
<path style="fill:#FF5240;" d="M255.817,228.009c1.721-1.08,3.908-1.08,5.629,0l31.784,19.95l31.787-19.95
	c1.721-1.08,3.907-1.08,5.628,0l26.379,16.553v-27.404H194.734v12.406l29.303,18.394L255.817,228.009z"/>
<path style="fill:#4F413B;" d="M366.254,83.667h-14.211l6.765-45.093c0.69-2.644,4.111-17.624-3.928-28.318
	C349.765,3.45,341.438,0,330.132,0c-11.306,0-19.63,3.45-24.746,10.255c-8.039,10.694-4.619,25.674-3.929,28.319l6.764,45.094
	h-122.72c-20.025,0-36.317,16.292-36.317,36.317v60.86c0,19.57,15.564,35.566,34.963,36.281v127.243l-56.996,58.339
	c-23.577,24.133-23.632,61.814-0.129,87.648c15.463,16.994,32.581,21.646,46.685,21.646c3.98,0,7.719-0.371,11.114-0.939
	c15.055-2.519,26.159-9.262,28.282-10.621c6.126-2.941,78.447-37.801,116.816-63.38c40.718-27.146,37.965-86.198,37.691-90.702
	V217.125c19.398-0.716,34.962-16.711,34.962-36.281v-60.86C402.57,99.959,386.278,83.667,366.254,83.667z M313.871,16.586
	c3.011-3.981,8.482-5.999,16.26-5.999c7.779,0,13.251,2.019,16.262,5.999c5.492,7.259,2.169,19.322,2.139,19.428
	c-0.066,0.225-0.116,0.454-0.151,0.686l-7.045,46.967h-22.413l-7.041-46.966c-0.033-0.221-0.085-0.455-0.146-0.671
	C311.703,35.91,308.379,23.845,313.871,16.586z M183.073,500.62c-18.66,3.122-34.883-2.73-48.22-17.39
	c-21.406-23.529-17.237-53.239-2.303-70.727c4.764,1.76,14.757,6.179,25.62,15.36c13.368,11.297,30.759,32.296,39.13,68.707
	C193.376,498.15,188.525,499.709,183.073,500.62z M208.218,491.041c-0.231,0.111-0.453,0.238-0.665,0.38
	c-0.013,0.008-0.194,0.128-0.523,0.333c-9.314-38.06-28.031-60.289-42.516-72.389c-9.352-7.811-18.067-12.468-24.085-15.099
	l52.798-54.042c0.966-0.988,1.507-2.316,1.507-3.7v-71.741l26.464,16.623c1.721,1.081,3.91,1.081,5.631,0l31.757-19.947
	l31.757,19.947c1.721,1.081,3.91,1.081,5.631,0l31.762-19.947l29.286,18.392v25.411c-5.937,3.003-18.628,10.579-28.946,24.646
	c-12.216,16.657-23.182,45.76-7.496,90.616C281.053,456.093,208.963,490.685,208.218,491.041z M221.222,258.693
	c1.721,1.08,3.908,1.08,5.629,0l31.78-19.95l31.784,19.95c1.721,1.08,3.908,1.08,5.629,0l31.787-19.95l29.192,18.319v20.288
	l-26.471-16.624c-1.723-1.081-3.91-1.081-5.631,0l-31.762,19.948l-31.757-19.948c-1.721-1.081-3.91-1.081-5.631,0l-31.757,19.948
	l-29.279-18.391v-20.217L221.222,258.693z M194.734,229.566V217.16h162.288v27.404l-26.379-16.553c-1.721-1.08-3.907-1.08-5.628,0
	l-31.787,19.95l-31.784-19.95c-1.721-1.08-3.908-1.08-5.629,0l-31.78,19.95L194.734,229.566z M329.565,424.072
	c-19.689-60.028,12.254-87.489,27.457-96.742v19.196c0,0.119,0.004,0.238,0.012,0.356
	C357.07,347.42,360.085,398.069,329.565,424.072z M391.984,180.843c0,14.188-11.542,25.73-25.73,25.73H185.501
	c-14.188,0-25.73-11.542-25.73-25.73v-60.86c0-14.188,11.542-25.73,25.73-25.73h180.753c14.188,0,25.73,11.542,25.73,25.73V180.843z
	"/>
<g>
</g>
<g>
</g>
<g>
</g>
<g>
</g>
<g>
</g>
<g>
</g>
<g>
</g>
<g>
</g>
<g>
</g>
<g>
</g>
<g>
</g>
<g>
</g>
<g>
</g>
<g>
</g>
<g>
</g>
</svg>
